<?xml version="1.0" standalone="no"?>
<!DOCTYPE svg PUBLIC "-//W3C//DTD SVG 20010904//EN"
 "http://www.w3.org/TR/2001/REC-SVG-20010904/DTD/svg10.dtd">
<svg version="1.0" xmlns="http://www.w3.org/2000/svg"
 width="900.000000pt" height="900.000000pt" viewBox="0 0 900.000000 900.000000"
 preserveAspectRatio="xMidYMid meet">
<metadata>
Created by potrace 1.11, written by Peter Selinger 2001-2013
</metadata>
<g transform="translate(0.000000,900.000000) scale(0.100000,-0.100000)"
fill="#000000" stroke="none">
<path d="M2560 5675 l0 -2775 -271 -317 c-246 -288 -269 -318 -253 -330 14
-10 174 -13 801 -13 l783 0 0 226 0 226 269 314 269 313 478 -512 c264 -282
505 -539 538 -572 32 -33 171 -180 309 -327 137 -148 252 -268 256 -268 3 0
157 136 342 303 185 166 353 316 374 332 l38 30 -836 895 c-822 879 -836 895
-818 915 10 11 510 596 1111 1300 601 704 1104 1292 1118 1308 l26 27 -621 0
-620 0 -839 -981 -838 -981 -71 74 c-39 40 -112 117 -162 171 l-92 98 -113
-103 -113 -102 -3 1762 -2 1762 -530 0 -530 0 0 -2775z"/>
<path d="M2560 875 l0 -305 530 0 530 0 0 305 0 305 -530 0 -530 0 0 -305z"/>
</g>
</svg>
